<?xml version="1.0" encoding="UTF-8"?>
<svg id="Capa_1" data-name="Capa 1" xmlns="http://www.w3.org/2000/svg" viewBox="0 0 1920 1080">
  <defs>
    <style>
      .cls-1 {
        fill: #fff;
      }
    </style>
  </defs>
  <rect width="1920" height="1080"/>
  <g>
    <g>
      <circle class="cls-1" cx="958.99" cy="412.69" r="70.08"/>
      <g>
        <path class="cls-1" d="m1158.81,262.3c-13.5-33.99-52-50.61-85.99-37.11l-165.69,65.79c-33.99,13.5-50.61,52-37.11,85.99.66,1.66,1.48,3.2,2.27,4.77,11.68-42.69,48.58-65.16,87.71-65.16s73.79,21.52,86.59,61.54l75.11-29.82c34-13.5,50.61-52,37.11-85.99Z"/>
        <path class="cls-1" d="m960,506.06c-38.01,0-73.92-21.19-86.66-61.51l-75.04,29.79c-33.99,13.5-50.61,52-37.11,85.99,13.5,33.99,52,50.61,85.99,37.11l165.69-65.79c33.99-13.5,50.61-52,37.11-85.99-.68-1.72-1.45-3.37-2.27-4.99-11.68,42.49-48.58,65.39-87.71,65.39Z"/>
      </g>
    </g>
    <g>
      <path class="cls-1" d="m800.95,708.86c-4.13,0-7.47,3.35-7.47,7.47v135.68c0,4.13,3.35,7.47,7.47,7.47s7.47-3.35,7.47-7.47v-135.68c0-4.13-3.35-7.47-7.47-7.47Z"/>
      <path class="cls-1" d="m1086.94,708.86c-4.13,0-7.47,3.35-7.47,7.47v135.68c0,4.13,3.35,7.47,7.47,7.47s7.47-3.35,7.47-7.47v-135.68c0-4.13-3.35-7.47-7.47-7.47Z"/>
      <path class="cls-1" d="m1430.27,708.86c-4.13,0-7.47,3.35-7.47,7.47v135.68c0,4.13,3.35,7.47,7.47,7.47s7.47-3.35,7.47-7.47v-135.68c0-4.13-3.35-7.47-7.47-7.47Z"/>
      <path class="cls-1" d="m434.23,713.79c-.03-.08-.06-.15-.09-.22-.06-.15-.12-.3-.18-.44-.06-.12-.12-.23-.18-.34-.05-.1-.1-.2-.16-.3-.07-.12-.15-.24-.23-.35-.06-.08-.11-.17-.17-.25-.08-.11-.17-.22-.26-.32-.07-.08-.13-.17-.21-.25-.08-.09-.17-.18-.26-.27-.09-.09-.17-.17-.26-.25-.08-.07-.17-.14-.26-.21-.1-.09-.2-.17-.31-.25-.08-.06-.17-.12-.26-.18-.11-.08-.23-.16-.35-.23-.1-.06-.2-.11-.3-.17-.11-.06-.22-.12-.34-.18-.14-.07-.29-.13-.44-.19-.07-.03-.14-.06-.22-.09,0,0-.01,0-.02,0-.23-.08-.47-.16-.71-.22-.02,0-.03,0-.05,0-.22-.05-.45-.1-.67-.13-.09-.01-.18-.02-.27-.03-.15-.02-.3-.04-.46-.04-.1,0-.21,0-.31,0-.14,0-.28,0-.42,0-.11,0-.22.02-.33.03-.13.01-.27.02-.4.04-.14.02-.29.05-.43.08-.12.03-.24.05-.37.08-.21.06-.42.12-.63.19,0,0-.02,0-.02,0-.09.03-.18.08-.27.12-.13.05-.26.1-.38.16-.13.06-.25.13-.37.19-.09.05-.18.1-.27.15-.13.08-.25.16-.37.24-.08.05-.16.11-.24.16-.11.08-.22.17-.33.26-.08.07-.16.13-.24.2-.09.08-.18.17-.27.26-.08.08-.17.17-.25.26-.07.08-.14.17-.21.25-.09.1-.17.21-.25.31-.06.08-.12.17-.17.26-.08.12-.16.23-.23.35-.06.1-.11.2-.16.3-.06.11-.12.22-.18.34-.07.14-.13.29-.18.44-.03.07-.06.14-.09.22l-49.13,135.68c-1.4,3.88.6,8.16,4.48,9.57.84.3,1.7.45,2.54.45,3.06,0,5.93-1.89,7.03-4.93l42.1-116.28,42.1,116.28c1.1,3.04,3.97,4.93,7.03,4.93.84,0,1.7-.14,2.54-.45,3.88-1.41,5.89-5.69,4.48-9.57l-49.13-135.68Z"/>
      <path class="cls-1" d="m337.15,715.66c-.01-.12-.03-.23-.04-.34-.02-.12-.03-.24-.06-.36-.03-.14-.06-.27-.09-.4-.02-.1-.05-.19-.07-.29-.04-.14-.09-.28-.14-.42-.03-.09-.06-.17-.09-.25-.05-.14-.11-.27-.18-.41-.04-.09-.08-.17-.13-.26-.06-.12-.13-.24-.2-.35-.06-.1-.11-.19-.17-.29-.06-.1-.13-.19-.2-.29-.08-.11-.15-.21-.23-.31-.06-.08-.13-.15-.19-.23-.09-.11-.19-.22-.29-.32-.07-.07-.13-.13-.2-.2-.11-.1-.21-.2-.32-.29-.08-.07-.16-.13-.24-.19-.11-.08-.21-.17-.33-.24-.1-.07-.21-.14-.31-.2-.1-.06-.19-.12-.29-.18-.14-.08-.28-.14-.42-.21-.06-.03-.12-.07-.18-.09-.02,0-.04-.01-.06-.02-.15-.07-.31-.12-.46-.18-.08-.03-.16-.06-.24-.09-.13-.04-.27-.08-.41-.11-.11-.03-.22-.06-.33-.08-.1-.02-.2-.03-.3-.05-.15-.03-.3-.05-.45-.07-.07,0-.15,0-.22-.02-.18-.01-.35-.03-.53-.03-.02,0-.04,0-.05,0-.06,0-.12,0-.19,0-.16,0-.33,0-.49.02-.11,0-.21.03-.32.04-.13.02-.26.03-.39.06-.13.02-.26.06-.39.09-.1.02-.2.05-.3.08-.14.04-.28.09-.41.14-.09.03-.18.06-.27.1-.13.05-.27.11-.4.17-.09.04-.18.08-.27.13-.12.06-.23.13-.35.19-.1.06-.19.11-.29.18-.1.06-.19.13-.29.2-.11.08-.21.15-.31.23-.08.06-.16.13-.23.2-.11.09-.21.19-.31.28-.07.07-.14.14-.2.21-.1.1-.19.21-.29.31-.07.08-.13.17-.2.25-.08.1-.16.2-.23.31-.08.11-.15.22-.22.34-.06.09-.11.18-.16.27-.08.14-.16.29-.23.45-.03.05-.06.11-.08.16l-.06.14s0,.01,0,.02l-53.94,120.32-53.94-120.32s0,0,0-.01l-.06-.14c-.03-.06-.06-.11-.08-.16-.07-.15-.14-.3-.22-.44-.05-.1-.11-.19-.17-.28-.07-.11-.14-.22-.21-.33-.08-.11-.16-.22-.24-.32-.06-.08-.13-.16-.19-.24-.1-.11-.2-.22-.3-.33-.06-.07-.12-.13-.19-.19-.11-.1-.22-.2-.33-.3-.07-.06-.14-.12-.21-.18-.11-.09-.22-.17-.34-.25-.08-.06-.17-.12-.26-.18-.11-.07-.22-.13-.33-.2-.1-.06-.2-.12-.31-.17-.1-.05-.21-.1-.31-.15-.12-.05-.23-.11-.35-.15-.11-.04-.21-.08-.32-.12-.12-.04-.24-.08-.36-.12-.12-.04-.24-.07-.37-.09-.11-.03-.21-.05-.32-.07-.15-.03-.31-.05-.46-.07-.08-.01-.16-.02-.25-.03-.19-.02-.38-.03-.57-.03-.04,0-.08,0-.12,0-.01,0-.02,0-.04,0-.2,0-.41.01-.61.03-.05,0-.1,0-.15.01-.17.02-.35.05-.52.08-.08.01-.16.02-.24.04-.13.03-.25.06-.38.1-.12.03-.24.06-.36.1-.09.03-.18.06-.27.1-.15.05-.3.11-.45.17-.02,0-.04.01-.06.02-.06.03-.12.06-.18.09-.14.07-.28.14-.41.21-.1.06-.2.12-.29.18-.11.07-.21.13-.31.2-.11.08-.22.16-.33.24-.08.06-.16.12-.24.19-.11.1-.22.19-.33.3-.07.06-.14.13-.2.2-.1.1-.2.21-.29.32-.07.08-.13.15-.19.23-.08.1-.16.21-.23.31-.07.09-.13.19-.2.29-.06.1-.12.19-.18.29-.07.12-.13.23-.19.35-.04.09-.09.17-.13.26-.06.13-.12.27-.18.4-.03.08-.06.17-.09.26-.05.14-.1.28-.14.42-.03.1-.05.19-.08.29-.03.13-.06.27-.09.4-.02.12-.04.25-.06.37-.02.11-.03.22-.04.34-.01.16-.02.31-.02.47,0,.07-.01.13-.01.2v73.69c0,4.13,3.35,7.47,7.47,7.47s7.47-3.35,7.47-7.47v-38.75l46.53,103.8s.03.06.05.09c.14.3.29.58.46.86.03.05.06.09.1.14.15.23.32.45.5.66.05.06.1.12.15.18.21.23.43.46.67.66.04.03.08.07.12.1.2.17.42.33.65.48.07.05.14.09.21.14.25.15.51.3.79.42.02,0,.03.02.05.03,0,0,.01,0,.02,0,.29.13.59.24.89.33.08.02.15.04.23.06.25.07.49.12.74.16.08.01.16.03.24.04.32.04.64.07.95.07,0,0,0,0,0,0,0,0,0,0,0,0,.32,0,.64-.03.95-.07.08-.01.16-.02.24-.04.25-.04.49-.09.74-.16.07-.02.15-.04.22-.06.3-.09.6-.2.89-.33,0,0,.01,0,.02,0,.02,0,.03-.02.05-.03.28-.13.54-.27.79-.43.07-.04.14-.09.21-.14.23-.15.44-.31.65-.48.04-.03.08-.06.12-.1.24-.21.46-.43.67-.67.05-.06.1-.12.15-.18.18-.21.35-.43.5-.66.03-.05.07-.09.1-.14.17-.28.33-.56.46-.86.01-.03.03-.06.05-.09l46.53-103.8v100.74c0,4.13,3.35,7.47,7.47,7.47s7.47-3.35,7.47-7.47v-135.68c0-.07,0-.14-.01-.21,0-.16,0-.31-.02-.47Z"/>
      <path class="cls-1" d="m1384.33,851.97v-135.64c0-4.13-3.35-7.47-7.47-7.47s-7.47,3.35-7.47,7.47v111.43l-78.73-115.6s-.01-.01-.02-.02v-.02s-.07-.08-.1-.12c-.11-.16-.22-.31-.35-.46-.08-.1-.17-.19-.26-.28-.08-.08-.15-.17-.23-.25-.11-.11-.22-.2-.33-.3-.07-.06-.14-.12-.21-.18-.12-.09-.24-.18-.36-.27-.08-.05-.15-.11-.23-.16-.11-.08-.23-.14-.35-.21-.09-.06-.19-.11-.28-.16-.1-.05-.21-.1-.32-.15-.12-.05-.23-.11-.35-.16-.1-.04-.19-.07-.29-.11-.13-.05-.26-.1-.4-.14-.1-.03-.19-.05-.29-.08-.14-.03-.27-.07-.41-.1-.12-.02-.25-.04-.38-.06-.11-.02-.22-.04-.34-.05-.22-.02-.43-.03-.65-.03-.03,0-.05,0-.07,0,0,0,0,0,0,0-.5,0-1,.05-1.49.15-.06.01-.12.03-.17.04-.18.04-.36.08-.53.14-.12.04-.23.08-.35.13-.11.04-.23.08-.34.12-.46.19-.9.43-1.31.71,0,0,0,0,0,0-.05.03-.09.07-.14.1-.15.11-.3.21-.44.33-.1.08-.19.17-.28.26-.08.08-.17.15-.25.23-.1.11-.2.22-.3.33-.06.07-.13.14-.19.21-.09.11-.18.23-.26.35-.06.08-.12.16-.17.24-.07.11-.14.22-.2.33-.06.1-.12.2-.17.3-.05.1-.1.2-.14.29-.06.12-.12.25-.17.37-.03.09-.06.17-.09.26-.05.14-.1.28-.15.43-.02.08-.04.17-.06.25-.04.15-.08.3-.11.45-.02.1-.03.21-.05.31-.02.13-.04.27-.06.4-.02.18-.02.36-.03.53,0,.06,0,.12,0,.18v73.69c0,4.13,3.35,7.47,7.47,7.47s7.47-3.35,7.47-7.47v-49.44l78.73,115.6s.01.02.02.02v.02s.03.02.04.04c.15.22.31.42.48.62.06.08.13.15.2.22.12.13.25.26.39.39.08.07.16.15.24.22.15.13.31.25.48.37.06.04.11.09.17.13.22.15.45.29.69.41.07.04.14.07.21.1.18.09.36.17.55.25.08.03.16.06.24.09.19.07.38.12.57.17.08.02.16.04.24.06.2.05.4.08.61.11.07.01.15.03.22.03.26.03.51.04.78.05.02,0,.04,0,.06,0,.02,0,.04,0,.06,0,.31,0,.6-.03.9-.07.09-.01.18-.03.28-.04.28-.05.56-.11.84-.19.04-.01.08-.02.11-.03.32-.1.62-.22.92-.36.07-.03.13-.06.2-.1.31-.15.61-.32.89-.51,0,0,0,0,0,0,.05-.03.09-.07.14-.1.15-.11.3-.21.44-.33.1-.08.19-.17.28-.26.08-.08.17-.15.25-.23.1-.11.2-.22.3-.33.06-.07.13-.14.19-.21.09-.11.18-.23.26-.35.06-.08.12-.16.17-.24.07-.11.14-.22.2-.34.06-.1.12-.2.17-.3.05-.1.1-.2.14-.3.06-.12.12-.24.17-.37.03-.09.06-.17.1-.26.05-.14.1-.28.15-.43.02-.08.04-.17.06-.25.04-.15.08-.3.11-.45.02-.1.03-.21.05-.31.02-.13.04-.26.06-.4.02-.18.02-.36.03-.53,0-.06,0-.12,0-.18v-.04Z"/>
      <path class="cls-1" d="m721,773.21v-.02h-30.41c-13.62,0-24.69-11.08-24.69-24.69s11.08-24.69,24.69-24.69h59.65v-14.94h-60.82v.03c-21.32.62-38.47,18.14-38.47,39.61s17.15,38.99,38.47,39.61v.03h30.74c15.55,0,28.2,12.65,28.2,28.2s-12.65,28.2-28.2,28.2h-68.17v14.94h69.47v-.03c23.19-.69,41.85-19.76,41.85-43.11s-18.9-42.67-42.31-43.12Z"/>
      <path class="cls-1" d="m583.37,795.15v-.02c23.4-.45,42.31-19.62,42.31-43.12s-18.9-42.67-42.31-43.13v-.02h-71.35v14.94h70.51c15.55,0,28.2,12.65,28.2,28.2s-12.65,28.2-28.2,28.2h-34.24s0,0-.01,0h-31.57c-4.13,0-7.47,3.35-7.47,7.47v64.33c0,4.13,3.35,7.47,7.47,7.47s7.47-3.35,7.47-7.47v-56.86h21.01l62.16,62.16c1.46,1.46,3.37,2.19,5.28,2.19s3.82-.73,5.28-2.19c2.92-2.92,2.92-7.65,0-10.57l-51.59-51.59h17.05Z"/>
      <path class="cls-1" d="m1192.68,709.57c-33.46,0-60.7,27.14-60.86,60.56h0v29.24h.02c.41,33.21,27.54,60.11,60.85,60.11,16.26,0,31.55-6.33,43.04-17.83,11.38-11.38,17.69-26.47,17.82-42.53h.01v-31.33h-.07c-1.39-32.34-28.13-58.22-60.81-58.22Zm45.93,89.04c0,12.27-4.78,23.8-13.45,32.48-8.67,8.67-20.21,13.45-32.48,13.45-25.32,0-45.93-20.6-45.93-45.93h0v-28.17c0-25.32,20.6-45.93,45.93-45.93s45.93,20.6,45.93,45.93v28.17Z"/>
      <path class="cls-1" d="m1485.39,784.76c0-15.97,6.22-30.98,17.51-42.27,11.29-11.29,26.3-17.51,42.27-17.51h0s39.63,0,39.63,0v-14.94h-42.96v.08c-18.71.82-36.18,8.48-49.51,21.81-14.11,14.11-21.89,32.88-21.89,52.84,0,41.07,33.31,74.51,74.34,74.72h0s40.34,0,40.34,0v-14.94h-39.95c-32.96,0-59.78-26.82-59.78-59.78Z"/>
      <path class="cls-1" d="m1024.34,777.89c8.02-7.26,13.08-17.75,13.08-29.39,0-21.57-17.33-39.17-38.8-39.62v-.02h-67.84v14.94h67c13.62,0,24.69,11.08,24.69,24.69s-11.08,24.69-24.69,24.69h-62.32c-4.13,0-7.47,3.35-7.47,7.47v71.35c0,4.13,3.35,7.47,7.47,7.47.4,0,.79-.04,1.17-.1v.1h69.47v-.03c23.19-.69,41.85-19.76,41.85-43.11,0-16.76-9.61-31.3-23.6-38.45Zm-19.54,66.65h-61.87v-56.41h61.87c15.55,0,28.2,12.65,28.2,28.2s-12.65,28.2-28.2,28.2Z"/>
      <path class="cls-1" d="m1677.01,773.21v-.02h-30.66c-13.62,0-24.69-11.08-24.69-24.69s11.08-24.69,24.69-24.69h62.32v-14.94h-63.16v.02c-21.47.45-38.8,18.04-38.8,39.62s16.7,38.54,37.63,39.59v.05h31.91c15.55,0,28.2,12.65,28.2,28.2s-12.65,28.2-28.2,28.2v14.94c23.79,0,43.15-19.36,43.15-43.15s-18.95-42.72-42.39-43.13Z"/>
    </g>
  </g>
</svg>