<?xml version="1.0" encoding="UTF-8"?>
<svg id="Capa_1" data-name="Capa 1" xmlns="http://www.w3.org/2000/svg" viewBox="0 0 1920 1080">
  <defs>
    <style>
      .cls-1 {
        fill: #2d4f76;
      }
    </style>
  </defs>
  <path class="cls-1" d="m733.44,479.92c-2.86,0-5.19,2.32-5.19,5.19v109.38c0,2.86,2.32,5.19,5.19,5.19s5.19-2.32,5.19-5.19v-109.38c0-2.86-2.32-5.19-5.19-5.19Z"/>
  <path class="cls-1" d="m438.46,483.34c-.03-.08-.09-.12-.12-.2-.14-.34-.36-.63-.57-.93-.18-.26-.33-.53-.54-.75-.22-.22-.49-.37-.75-.55-.3-.21-.59-.42-.93-.56-.07-.03-.12-.09-.2-.12-.23-.08-.47-.05-.7-.1-.36-.08-.7-.16-1.07-.16s-.71.08-1.06.16c-.24.05-.47.02-.7.1-.08.03-.13.09-.2.12-.34.14-.63.36-.93.57-.26.18-.53.33-.75.54-.22.22-.37.49-.54.75-.21.3-.43.59-.57.93-.03.07-.09.12-.12.2l-39.61,109.38c-.97,2.69.42,5.67,3.11,6.64.58.21,1.18.31,1.77.31,2.12,0,4.11-1.31,4.88-3.42l34.73-95.91,34.73,95.91c.77,2.11,2.76,3.42,4.88,3.42.59,0,1.18-.1,1.77-.31,2.69-.98,4.09-3.95,3.11-6.64l-39.6-109.38Z"/>
  <path class="cls-1" d="m361.05,483.18c-.12-.31-.34-.56-.52-.83-.18-.28-.32-.59-.56-.83-.29-.3-.66-.5-1.02-.73-.2-.13-.35-.31-.58-.41-.02,0-.04,0-.05-.01-.3-.13-.65-.15-.98-.22-.35-.08-.69-.21-1.04-.21-.02,0-.03,0-.05,0-.23,0-.43.1-.65.13-.44.06-.87.09-1.27.26-.31.12-.56.34-.83.52-.28.18-.59.32-.83.56-.31.3-.51.67-.73,1.03-.13.2-.31.35-.41.57l-.05.1h0s-44.25,98.73-44.25,98.73l-44.26-98.72h0s-.05-.1-.05-.1c-.1-.22-.28-.37-.41-.57-.23-.36-.43-.73-.73-1.03-.25-.24-.55-.38-.84-.57-.27-.18-.52-.39-.82-.51-.41-.17-.85-.2-1.29-.26-.22-.03-.41-.13-.64-.13-.02,0-.03,0-.05,0-.35,0-.7.13-1.05.21-.33.07-.67.09-.97.22-.02,0-.04,0-.05.01-.22.1-.37.28-.58.41-.36.22-.73.43-1.02.73-.24.25-.38.55-.56.83-.18.28-.39.52-.52.83-.16.39-.19.82-.25,1.24-.03.23-.14.44-.14.68v59.41c0,2.86,2.32,5.19,5.19,5.19s5.19-2.32,5.19-5.19v-35.16l39.12,87.26c.23.51.54.96.9,1.35.07.08.16.13.23.2.38.37.8.67,1.27.91.08.04.13.12.21.15.15.07.3.09.45.15.13.04.25.09.37.12.43.11.86.19,1.3.19,0,0,0,0,0,0h0c.43,0,.87-.07,1.3-.19.13-.03.25-.08.37-.12.15-.05.3-.08.45-.15.08-.04.14-.11.22-.15.46-.24.89-.53,1.27-.91.07-.07.16-.12.23-.2.36-.39.67-.84.9-1.35l39.12-87.26v85.14c0,2.86,2.32,5.19,5.19,5.19s5.19-2.32,5.19-5.19v-109.38c0-.24-.11-.45-.14-.68-.06-.42-.09-.85-.25-1.24Z"/>
  <path class="cls-1" d="m670.26,531.81v-.04h-24.52c-11.44,0-20.75-9.31-20.75-20.75s9.31-20.75,20.75-20.75h48.09v-10.37h-49.03v.05c-16.72.5-30.18,14.23-30.18,31.07s13.45,30.57,30.18,31.07v.05h24.78c13,0,23.57,10.57,23.57,23.57s-10.57,23.58-23.57,23.58h-54.96v10.37h56v-.05c18.23-.56,32.9-15.53,32.9-33.89s-14.87-33.55-33.27-33.91Z"/>
  <path class="cls-1" d="m558.99,547.81v-.03c18.4-.37,33.27-15.42,33.27-33.91s-14.87-33.55-33.27-33.91v-.03h-57.52v10.37h56.85c13,0,23.57,10.57,23.57,23.57s-10.57,23.57-23.57,23.57h-53.07c-2.86,0-5.19,2.32-5.19,5.19v51.86c0,2.86,2.32,5.19,5.19,5.19s5.19-2.32,5.19-5.19v-46.68h18.13l50.35,50.35c1.01,1.01,2.34,1.52,3.67,1.52s2.65-.51,3.67-1.52c2.03-2.03,2.03-5.31,0-7.33l-43.02-43.02h15.77Z"/>
  <path class="cls-1" d="m1160.36,479.92c-2.86,0-5.19,2.32-5.19,5.19v109.38c0,2.86,2.32,5.19,5.19,5.19s5.19-2.32,5.19-5.19v-109.38c0-2.86-2.32-5.19-5.19-5.19Z"/>
  <path class="cls-1" d="m1435.71,479.92c-2.86,0-5.19,2.32-5.19,5.19v109.38c0,2.86,2.32,5.19,5.19,5.19s5.19-2.32,5.19-5.19v-109.38c0-2.86-2.32-5.19-5.19-5.19Z"/>
  <path class="cls-1" d="m1392.33,479.92c-2.86,0-5.19,2.32-5.19,5.19v92.56l-65.02-95.47c-.09-.14-.23-.21-.34-.33-.23-.28-.47-.51-.75-.74-.26-.21-.51-.39-.8-.54-.29-.15-.58-.26-.9-.36-.34-.11-.68-.18-1.04-.21-.16-.02-.3-.09-.46-.09-.17,0-.32.08-.48.1-.35.03-.68.1-1.02.21-.34.11-.65.23-.96.4-.15.08-.31.09-.45.19-.14.09-.2.24-.33.34-.28.23-.51.48-.74.76-.21.26-.39.51-.54.8-.15.29-.26.58-.36.9-.11.34-.18.68-.21,1.04-.01.16-.09.3-.09.46v59.41c0,2.86,2.32,5.19,5.19,5.19s5.19-2.32,5.19-5.19v-42.58l65.02,95.47c.14.21.32.37.49.55.08.09.14.18.23.26.43.41.91.73,1.43.97.11.05.21.08.32.12.58.22,1.19.37,1.82.37s1.21-.15,1.8-.36c.19-.07.35-.16.53-.25.2-.1.4-.16.59-.28.14-.09.21-.23.33-.34.28-.23.51-.47.74-.75.21-.26.39-.51.54-.8.15-.29.26-.58.36-.9.11-.34.18-.68.21-1.04.01-.16.09-.3.09-.46v-109.38c0-2.86-2.32-5.19-5.19-5.19Z"/>
  <path class="cls-1" d="m1245.12,480.49c-26.52,0-48.09,21.51-48.22,47.99h-.01v23.57h.03c.33,26.31,21.82,47.62,48.21,47.62s47.99-21.42,48.22-47.83h.02v-25.25h-.11c-1.13-25.6-22.25-46.1-48.13-46.1Zm37.87,70.95c0,20.88-16.99,37.86-37.87,37.86s-37.86-16.98-37.86-37.86h0v-22.71c0-20.88,16.99-37.87,37.87-37.87s37.87,16.99,37.87,37.87v22.71Z"/>
  <path class="cls-1" d="m1478.82,540.27c0-27.04,22-49.03,49.03-49.03h31.95v-10.37h-34.63v.14c-31.5,1.42-56.72,27.42-56.72,59.27s26.48,59.22,59.1,59.39v.02h32.52v-10.37h-32.21c-27.04,0-49.03-22-49.03-49.03Z"/>
  <path class="cls-1" d="m1108.84,534.95c6.86-5.71,11.23-14.31,11.23-23.91,0-16.93-13.6-30.72-30.44-31.08v-.04h-54.69v10.37h54.01c11.44,0,20.75,9.31,20.75,20.75s-9.31,20.75-20.75,20.75h-50.24c-2.86,0-5.19,2.32-5.19,5.19v57.52c0,2.86,2.32,5.19,5.19,5.19.33,0,.63-.13.94-.19v.19h56v-.05c18.23-.56,32.9-15.53,32.9-33.89,0-13.63-8.1-25.39-19.72-30.78Zm-14.23,54.35h-50.71v-47.15h50.71c13,0,23.58,10.57,23.58,23.57s-10.58,23.57-23.58,23.57Z"/>
  <path class="cls-1" d="m1633.66,531.81v-.03h-24.72c-11.44,0-20.75-9.31-20.75-20.75s9.31-20.75,20.75-20.75h50.24v-10.37h-50.92v.04c-16.85.36-30.44,14.15-30.44,31.08s13.09,30.19,29.5,31.04v.08h25.73c13,0,23.58,10.57,23.58,23.57s-10.58,23.57-23.58,23.57v10.37c18.72,0,33.95-15.23,33.95-33.95s-14.9-33.59-33.34-33.92Z"/>
  <g>
    <circle class="cls-1" cx="886.26" cy="540.65" r="33.08"/>
    <g>
      <path class="cls-1" d="m980.58,469.66c-6.37-16.05-24.54-23.89-40.59-17.52l-78.21,31.05c-16.05,6.37-23.89,24.54-17.52,40.59.31.78.7,1.51,1.07,2.25,5.51-20.15,22.93-30.76,41.4-30.76s34.83,10.16,40.87,29.05l35.45-14.08c16.05-6.37,23.89-24.54,17.52-40.59Z"/>
      <path class="cls-1" d="m886.74,584.72c-17.94,0-34.89-10-40.91-29.04l-35.42,14.06c-16.05,6.37-23.89,24.54-17.52,40.59,6.37,16.05,24.54,23.89,40.59,17.52l78.21-31.05c16.05-6.37,23.89-24.54,17.52-40.59-.32-.81-.68-1.59-1.07-2.36-5.51,20.05-22.93,30.87-41.4,30.87Z"/>
    </g>
  </g>
</svg>